<svg xmlns="http://www.w3.org/2000/svg" viewBox="0 0 460 90" width="460" height="90">
  <!-- Wheat stalk icon - compact -->
  <g transform="translate(22, 8) scale(0.88)">
    <line x1="35" y1="85" x2="35" y2="5" stroke="#8B6914" stroke-width="2.5" stroke-linecap="round"/>
    <ellipse cx="35" cy="6" rx="9" ry="15" fill="#C9940A"/>
    <ellipse cx="21" cy="26" rx="7.5" ry="13" fill="#D4A012" transform="rotate(-28,21,26)"/>
    <ellipse cx="19" cy="48" rx="7" ry="12" fill="#C9940A" transform="rotate(-24,19,48)"/>
    <ellipse cx="49" cy="26" rx="7.5" ry="13" fill="#C9940A" transform="rotate(28,49,26)"/>
    <ellipse cx="51" cy="48" rx="7" ry="12" fill="#D4A012" transform="rotate(24,51,48)"/>
    <path d="M35,85 Q28,93 22,89" fill="none" stroke="#8B6914" stroke-width="2" stroke-linecap="round"/>
    <path d="M35,85 Q42,93 48,89" fill="none" stroke="#8B6914" stroke-width="2" stroke-linecap="round"/>
  </g>

  <line x1="96" y1="12" x2="96" y2="78" stroke="#C9940A" stroke-width="1.2" opacity="0.5"/>

  <text x="111" y="45" font-family="Georgia, 'Times New Roman', serif" font-size="32" font-weight="700" fill="#3D2800" letter-spacing="1">KAKA'S</text>
  <text x="111" y="72" font-family="Georgia, 'Times New Roman', serif" font-size="32" font-weight="700" fill="#3D2800" letter-spacing="1">GLOBAL</text>
  <text x="113" y="87" font-family="Georgia, 'Times New Roman', serif" font-size="12" fill="#8B6914" letter-spacing="6">LIMITED</text>
</svg>
