<svg xmlns="http://www.w3.org/2000/svg" viewBox="0 0 80 96" width="80" height="96">
  <!-- Wheat stalk icon standalone -->
  <line x1="40" y1="92" x2="40" y2="8" stroke="#8B6914" stroke-width="3" stroke-linecap="round"/>
  <!-- Top kernel -->
  <ellipse cx="40" cy="9" rx="11" ry="18" fill="#C9940A"/>
  <!-- Left kernels -->
  <ellipse cx="23" cy="32" rx="9" ry="16" fill="#D4A012" transform="rotate(-28,23,32)"/>
  <ellipse cx="20" cy="56" rx="8.5" ry="14" fill="#C9940A" transform="rotate(-24,20,56)"/>
  <ellipse cx="22" cy="76" rx="8" ry="13" fill="#D4A012" transform="rotate(-20,22,76)"/>
  <!-- Right kernels -->
  <ellipse cx="57" cy="32" rx="9" ry="16" fill="#C9940A" transform="rotate(28,57,32)"/>
  <ellipse cx="60" cy="56" rx="8.5" ry="14" fill="#D4A012" transform="rotate(24,60,56)"/>
  <ellipse cx="58" cy="76" rx="8" ry="13" fill="#C9940A" transform="rotate(20,58,76)"/>
  <!-- Roots -->
  <path d="M40,92 Q30,102 20,97" fill="none" stroke="#8B6914" stroke-width="2.5" stroke-linecap="round"/>
  <path d="M40,92 Q50,102 60,97" fill="none" stroke="#8B6914" stroke-width="2.5" stroke-linecap="round"/>
</svg>
